<?xml version="1.0" standalone="no"?><svg xmlns="http://www.w3.org/2000/svg" viewBox="0 0 1440 320"><path fill="#0099ff" fill-opacity="1" d="M0,256L26.7,245.3C53.3,235,107,213,160,176C213.3,139,267,85,320,90.7C373.3,96,427,160,480,176C533.3,192,587,160,640,133.3C693.3,107,747,85,800,101.3C853.3,117,907,171,960,208C1013.3,245,1067,267,1120,234.7C1173.3,203,1227,117,1280,96C1333.3,75,1387,117,1413,138.7L1440,160L1440,320L1413.3,320C1386.7,320,1333,320,1280,320C1226.7,320,1173,320,1120,320C1066.7,320,1013,320,960,320C906.7,320,853,320,800,320C746.7,320,693,320,640,320C586.7,320,533,320,480,320C426.7,320,373,320,320,320C266.7,320,213,320,160,320C106.7,320,53,320,27,320L0,320Z"></path></svg>